<svg xmlns="http://www.w3.org/2000/svg" width="390" height="760" viewBox="0 0 390 760">
  <defs>
    <g id="sprig" fill="none" stroke="#9aa46f" stroke-width="1.1" stroke-linecap="round">
      <path d="M22 0 C18 38 36 70 21 112 C14 132 11 154 18 188"/>
      <path d="M22 62 C8 56 2 46 0 32"/>
      <path d="M24 88 C42 82 52 69 58 52"/>
      <path d="M18 142 C4 138 -5 126 -10 112"/>
      <path d="M18 158 C36 154 49 143 58 128"/>
    </g>
    <g id="daisy">
      <circle cx="0" cy="0" r="4.8" fill="#d4bc51"/>
      <ellipse cx="0" cy="-13" rx="4.2" ry="11.5" fill="#fffef5" stroke="#d9cf9c" stroke-width=".7"/>
      <ellipse cx="0" cy="13" rx="4.2" ry="11.5" fill="#fffef5" stroke="#d9cf9c" stroke-width=".7"/>
      <ellipse cx="-13" cy="0" rx="11.5" ry="4.2" fill="#fffef5" stroke="#d9cf9c" stroke-width=".7"/>
      <ellipse cx="13" cy="0" rx="11.5" ry="4.2" fill="#fffef5" stroke="#d9cf9c" stroke-width=".7"/>
      <ellipse cx="-9" cy="-9" rx="9.8" ry="3.7" transform="rotate(45 -9 -9)" fill="#fffef5" stroke="#d9cf9c" stroke-width=".7"/>
      <ellipse cx="9" cy="9" rx="9.8" ry="3.7" transform="rotate(45 9 9)" fill="#fffef5" stroke="#d9cf9c" stroke-width=".7"/>
      <ellipse cx="9" cy="-9" rx="9.8" ry="3.7" transform="rotate(-45 9 -9)" fill="#fffef5" stroke="#d9cf9c" stroke-width=".7"/>
      <ellipse cx="-9" cy="9" rx="9.8" ry="3.7" transform="rotate(-45 -9 9)" fill="#fffef5" stroke="#d9cf9c" stroke-width=".7"/>
    </g>
  </defs>
  <g opacity=".7">
    <use href="#sprig" x="4" y="4"/>
    <use href="#sprig" x="366" y="4" transform="scale(-1 1) translate(-390 0)"/>
    <use href="#sprig" x="10" y="270"/>
    <use href="#sprig" x="360" y="312" transform="scale(-1 1) translate(-390 0)"/>
    <use href="#sprig" x="1" y="548"/>
    <use href="#sprig" x="365" y="560" transform="scale(-1 1) translate(-390 0)"/>
  </g>
  <g opacity=".88">
    <use href="#daisy" x="34" y="28"/>
    <use href="#daisy" x="340" y="48" transform="rotate(20 340 48)"/>
    <use href="#daisy" x="26" y="276" transform="rotate(-15 26 276)"/>
    <use href="#daisy" x="357" y="334" transform="rotate(14 357 334)"/>
    <use href="#daisy" x="28" y="618" transform="rotate(12 28 618)"/>
    <use href="#daisy" x="344" y="660" transform="rotate(-16 344 660)"/>
  </g>
  <g opacity=".35" fill="#c6cfa4">
    <path d="M365 173c-16 12-23 27-24 45 16-9 25-22 24-45z"/>
    <path d="M24 452c18 8 31 19 38 36-19-4-32-15-38-36z"/>
    <path d="M342 525c-14 7-22 19-26 34 16-3 25-14 26-34z"/>
  </g>
</svg>
